<?xml version="1.0" encoding="UTF-8" standalone="no"?>
<!-- Generator: Adobe Illustrator 19.0.0, SVG Export Plug-In . SVG Version: 6.00 Build 0)  -->

<svg
   xmlns:dc="http://purl.org/dc/elements/1.1/"
   xmlns:cc="http://creativecommons.org/ns#"
   xmlns:rdf="http://www.w3.org/1999/02/22-rdf-syntax-ns#"
   xmlns:svg="http://www.w3.org/2000/svg"
   xmlns="http://www.w3.org/2000/svg"
   xmlns:sodipodi="http://sodipodi.sourceforge.net/DTD/sodipodi-0.dtd"
   xmlns:inkscape="http://www.inkscape.org/namespaces/inkscape"
   version="1.1"
   id="Capa_1"
   x="0px"
   y="0px"
   viewBox="0 0 508.52 508.52"
   style="enable-background:new 0 0 508.52 508.52;"
   xml:space="preserve"
   inkscape:version="0.91 r13725"
   sodipodi:docname="attention-icon-grey.svg"><metadata
     id="metadata51"><rdf:RDF><cc:Work
         rdf:about=""><dc:format>image/svg+xml</dc:format><dc:type
           rdf:resource="http://purl.org/dc/dcmitype/StillImage" /><dc:title></dc:title></cc:Work></rdf:RDF></metadata><defs
     id="defs49" /><sodipodi:namedview
     pagecolor="#ffffff"
     bordercolor="#666666"
     borderopacity="1"
     objecttolerance="10"
     gridtolerance="10"
     guidetolerance="10"
     inkscape:pageopacity="0"
     inkscape:pageshadow="2"
     inkscape:window-width="966"
     inkscape:window-height="480"
     id="namedview47"
     showgrid="false"
     inkscape:zoom="0.46409188"
     inkscape:cx="254.25999"
     inkscape:cy="254.25999"
     inkscape:window-x="63"
     inkscape:window-y="63"
     inkscape:window-maximized="0"
     inkscape:current-layer="Capa_1" /><g
     id="g3"
     style="fill:#808080"><g
       id="g5"
       style="fill:#808080"><g
         id="g7"
         style="fill:#808080"><g
           id="g9"
           style="fill:#808080"><path
             style="fill:#808080"
             d="M254.26,0C113.845,0,0,113.845,0,254.26s113.845,254.26,254.26,254.26      s254.26-113.845,254.26-254.26S394.675,0,254.26,0z M254.26,476.737c-122.68,0-222.477-99.829-222.477-222.477      c0-122.68,99.797-222.477,222.477-222.477c122.649,0,222.477,99.797,222.477,222.477      C476.737,376.908,376.908,476.737,254.26,476.737z"
             id="path11" /><path
             style="fill:#808080"
             d="M254.26,95.347c-17.544,0-31.782,14.239-31.782,31.782v158.912      c0,17.544,14.239,31.782,31.782,31.782s31.782-14.239,31.782-31.782V127.13C286.042,109.586,271.804,95.347,254.26,95.347z"
             id="path13" /><circle
             style="fill:#808080"
             cx="254.26"
             cy="380.881"
             r="31.782"
             id="circle15" /></g></g></g></g><g
     id="g17" /><g
     id="g19" /><g
     id="g21" /><g
     id="g23" /><g
     id="g25" /><g
     id="g27" /><g
     id="g29" /><g
     id="g31" /><g
     id="g33" /><g
     id="g35" /><g
     id="g37" /><g
     id="g39" /><g
     id="g41" /><g
     id="g43" /><g
     id="g45" /></svg>