<?xml version="1.0" encoding="iso-8859-1"?>
<!-- Generator: Adobe Illustrator 16.0.0, SVG Export Plug-In . SVG Version: 6.00 Build 0)  -->
<!DOCTYPE svg PUBLIC "-//W3C//DTD SVG 1.1//EN" "http://www.w3.org/Graphics/SVG/1.1/DTD/svg11.dtd">
<svg xmlns="http://www.w3.org/2000/svg" xmlns:xlink="http://www.w3.org/1999/xlink" version="1.1" id="Capa_1" x="0px" y="0px" width="512px" height="512px" viewBox="0 0 479.646 479.646" style="enable-background:new 0 0 479.646 479.646;" xml:space="preserve">
<g>
	<g>
		<path d="M370.51,35.495c-2.655-3.476-6.97-5.259-11.294-4.741c-4.342,0.537-8.069,3.331-9.812,7.343L325.98,92.146l-29.027,6.752    l-18.865-28.087l23.214-53.566c1.734-4.012,1.225-8.644-1.354-12.173c-2.571-3.53-6.848-5.463-11.18-5.005    c-33.189,3.283-62.03,24.292-75.262,54.837c-9.754,22.498-10.157,47.447-1.145,70.245c3.373,8.529,7.915,16.378,13.455,23.372    l-15.912,36.725c-0.061,0.138-0.085,0.283-0.141,0.421c-18.377,4.572-33.988,17.312-41.741,35.207L95.259,388.765    c-6.553,15.111-6.824,31.875-0.771,47.198c6.06,15.323,17.722,27.37,32.835,33.917l10.745,4.663    c7.806,3.386,16.053,5.103,24.504,5.103c24.61,0,46.831-14.589,56.618-37.17l72.764-167.897    c7.933-18.305,6.202-38.363-2.832-54.572c0.056-0.12,0.141-0.229,0.193-0.349l15.931-36.767    c33.563-2.753,63.161-23.702,76.708-54.982C395.196,97.367,390.81,61.956,370.51,35.495z M237.441,183.731l7.477-17.245    c5.065,3.548,10.511,6.632,16.312,9.144c5.794,2.512,11.744,4.397,17.814,5.668l-7.463,17.227L237.441,183.731z M269.318,264.771    l-72.762,167.896c-5.873,13.547-19.217,22.306-33.984,22.306c-5.056,0-10-1.037-14.686-3.066l-10.752-4.662    c-9.071-3.934-16.064-11.161-19.703-20.353c-3.633-9.192-3.469-19.251,0.465-28.322l72.762-167.89    c5.874-13.547,19.209-22.305,33.978-22.305c5.056,0,9.993,1.037,14.681,3.06l10.777,4.668    c9.059,3.939,16.052,11.161,19.683,20.347C273.408,245.64,273.244,255.699,269.318,264.771z M359.32,118.1    c-10.65,24.569-34.84,40.447-61.625,40.447c-9.18,0-18.149-1.867-26.654-5.554c-16.449-7.132-29.142-20.239-35.738-36.912    c-6.589-16.679-6.287-34.917,0.838-51.374c6.475-14.938,18.06-26.756,32.293-33.665l-15.668,36.146    c-1.669,3.855-1.267,8.295,1.077,11.782l27.377,40.748c2.855,4.247,8.029,6.289,13.035,5.138l43.367-10.089    c3.808-0.885,6.969-3.523,8.523-7.113l15.668-36.141C366.5,86.622,365.795,103.162,359.32,118.1z" fill="#ffff00"/>
		<path d="M168.232,390.214c-8.336-3.613-18.016,0.211-21.623,8.548c-3.613,8.337,0.211,18.016,8.547,21.624    c8.33,3.613,18.016-0.211,21.625-8.548C180.395,403.502,176.57,393.821,168.232,390.214z" fill="#ffff00"/>
	</g>
</g>
<g>
</g>
<g>
</g>
<g>
</g>
<g>
</g>
<g>
</g>
<g>
</g>
<g>
</g>
<g>
</g>
<g>
</g>
<g>
</g>
<g>
</g>
<g>
</g>
<g>
</g>
<g>
</g>
<g>
</g>
</svg>
