<?xml version="1.0" encoding="UTF-8" standalone="no"?>
<!-- Generator: Adobe Illustrator 18.0.0, SVG Export Plug-In . SVG Version: 6.00 Build 0)  -->

<svg
   xmlns:dc="http://purl.org/dc/elements/1.1/"
   xmlns:cc="http://creativecommons.org/ns#"
   xmlns:rdf="http://www.w3.org/1999/02/22-rdf-syntax-ns#"
   xmlns:svg="http://www.w3.org/2000/svg"
   xmlns="http://www.w3.org/2000/svg"
   xmlns:sodipodi="http://sodipodi.sourceforge.net/DTD/sodipodi-0.dtd"
   xmlns:inkscape="http://www.inkscape.org/namespaces/inkscape"
   version="1.1"
   id="Capa_1"
   x="0px"
   y="0px"
   viewBox="0 0 490 490"
   style="enable-background:new 0 0 490 490;"
   xml:space="preserve"
   inkscape:version="0.91 r13725"
   sodipodi:docname="003-consulting-message.svg"><metadata
     id="metadata57"><rdf:RDF><cc:Work
         rdf:about=""><dc:format>image/svg+xml</dc:format><dc:type
           rdf:resource="http://purl.org/dc/dcmitype/StillImage" /></cc:Work></rdf:RDF></metadata><defs
     id="defs55" /><sodipodi:namedview
     pagecolor="#ffffff"
     bordercolor="#666666"
     borderopacity="1"
     objecttolerance="10"
     gridtolerance="10"
     guidetolerance="10"
     inkscape:pageopacity="0"
     inkscape:pageshadow="2"
     inkscape:window-width="888"
     inkscape:window-height="480"
     id="namedview53"
     showgrid="false"
     inkscape:zoom="0.48163265"
     inkscape:cx="245"
     inkscape:cy="245"
     inkscape:window-x="0"
     inkscape:window-y="0"
     inkscape:window-maximized="0"
     inkscape:current-layer="Capa_1" /><g
     id="g3"
     style="fill:#f9f9f9"><g
       id="g5"
       style="fill:#f9f9f9"><path
         d="M393.872,454.517c-2.304,0-4.583-0.804-6.412-2.354l-99.315-84.194H68.115C30.556,367.968,0,337.242,0,299.474V103.977    c0-37.768,30.556-68.494,68.115-68.494h353.77c37.559,0,68.115,30.727,68.115,68.494v195.497    c0,37.768-30.556,68.494-68.115,68.494h-18.071v76.549c0,3.891-2.243,7.428-5.752,9.067    C396.723,454.21,395.293,454.517,393.872,454.517z M68.115,55.483c-26.592,0-48.226,21.754-48.226,48.494v195.497    c0,26.739,21.634,48.494,48.226,48.494h223.662c2.346,0,4.616,0.834,6.411,2.354l85.737,72.685v-65.039c0-5.523,4.453-10,9.945-10    h28.015c26.592,0,48.226-21.755,48.226-48.494V103.977c0-26.74-21.634-48.494-48.226-48.494H68.115z"
         id="path7"
         style="fill:#f9f9f9" /></g><g
       id="g9"
       style="fill:#f9f9f9"><g
         id="g11"
         style="fill:#f9f9f9"><path
           d="M405.168,147.469H84.832c-5.492,0-9.944-4.478-9.944-10c0-5.523,4.452-10,9.944-10h320.335c5.492,0,9.944,4.477,9.944,10     C415.111,142.991,410.66,147.469,405.168,147.469z"
           id="path13"
           style="fill:#f9f9f9" /></g><g
         id="g15"
         style="fill:#f9f9f9"><path
           d="M405.168,211.503H84.832c-5.492,0-9.944-4.478-9.944-10c0-5.523,4.452-10,9.944-10h320.335c5.492,0,9.944,4.477,9.944,10     C415.111,207.025,410.66,211.503,405.168,211.503z"
           id="path17"
           style="fill:#f9f9f9" /></g><g
         id="g19"
         style="fill:#f9f9f9"><path
           d="M405.168,275.538H84.832c-5.492,0-9.944-4.478-9.944-10c0-5.523,4.452-10,9.944-10h320.335c5.492,0,9.944,4.476,9.944,10     C415.111,271.06,410.66,275.538,405.168,275.538z"
           id="path21"
           style="fill:#f9f9f9" /></g></g></g><g
     id="g23"
     style="fill:#f9f9f9" /><g
     id="g25"
     style="fill:#f9f9f9" /><g
     id="g27"
     style="fill:#f9f9f9" /><g
     id="g29"
     style="fill:#f9f9f9" /><g
     id="g31"
     style="fill:#f9f9f9" /><g
     id="g33"
     style="fill:#f9f9f9" /><g
     id="g35"
     style="fill:#f9f9f9" /><g
     id="g37"
     style="fill:#f9f9f9" /><g
     id="g39"
     style="fill:#f9f9f9" /><g
     id="g41"
     style="fill:#f9f9f9" /><g
     id="g43"
     style="fill:#f9f9f9" /><g
     id="g45"
     style="fill:#f9f9f9" /><g
     id="g47"
     style="fill:#f9f9f9" /><g
     id="g49"
     style="fill:#f9f9f9" /><g
     id="g51"
     style="fill:#f9f9f9" /></svg>