<?xml version="1.0" encoding="UTF-8" standalone="no"?>
<!-- Generator: Adobe Illustrator 19.0.0, SVG Export Plug-In . SVG Version: 6.00 Build 0)  -->

<svg
   xmlns:dc="http://purl.org/dc/elements/1.1/"
   xmlns:cc="http://creativecommons.org/ns#"
   xmlns:rdf="http://www.w3.org/1999/02/22-rdf-syntax-ns#"
   xmlns:svg="http://www.w3.org/2000/svg"
   xmlns="http://www.w3.org/2000/svg"
   xmlns:sodipodi="http://sodipodi.sourceforge.net/DTD/sodipodi-0.dtd"
   xmlns:inkscape="http://www.inkscape.org/namespaces/inkscape"
   version="1.1"
   id="Capa_1"
   x="0px"
   y="0px"
   viewBox="0 0 55 55"
   style="enable-background:new 0 0 55 55;"
   xml:space="preserve"
   inkscape:version="0.91 r13725"
   sodipodi:docname="004-music-player.svg"><metadata
     id="metadata39"><rdf:RDF><cc:Work
         rdf:about=""><dc:format>image/svg+xml</dc:format><dc:type
           rdf:resource="http://purl.org/dc/dcmitype/StillImage" /></cc:Work></rdf:RDF></metadata><defs
     id="defs37" /><sodipodi:namedview
     pagecolor="#ffffff"
     bordercolor="#666666"
     borderopacity="1"
     objecttolerance="10"
     gridtolerance="10"
     guidetolerance="10"
     inkscape:pageopacity="0"
     inkscape:pageshadow="2"
     inkscape:window-width="888"
     inkscape:window-height="480"
     id="namedview35"
     showgrid="false"
     inkscape:zoom="2.1454545"
     inkscape:cx="23.506773"
     inkscape:cy="8.4394831"
     inkscape:window-x="0"
     inkscape:window-y="0"
     inkscape:window-maximized="0"
     inkscape:current-layer="Capa_1" /><path
     d="M 48.980904,4.9924164 C 48.79649,4.8310535 48.553165,4.7576291 48.307278,4.7866573 L 21.840346,8.2111371 c -0.425179,0.0555 -0.743636,0.416641 -0.743636,0.846088 l 0,5.1371459 0,3.596088 0,21.672149 c -1.558987,-1.87403 -4.03578,-3.093216 -6.830176,-3.093216 -4.7076991,0 -8.5377204,3.446677 -8.5377204,7.683948 0,4.23727 3.8300213,7.683948 8.5377204,7.683948 4.707699,0 8.53772,-3.446678 8.53772,-7.683948 0,-0.198075 -0.01622,-0.392735 -0.0333,-0.586542 0.0111,-0.0555 0.0333,-0.105867 0.0333,-0.163924 l 0,-24.76195 24.759389,-3.204206 0,15.587316 c -1.558988,-1.873176 -4.03578,-3.092362 -6.830176,-3.092362 -4.707699,0 -8.53772,3.446677 -8.53772,7.683948 0,4.23727 3.830021,7.683948 8.53772,7.683948 4.66501,0 8.463442,-3.38606 8.531743,-7.570397 0,-0.0111 0.006,-0.02049 0.006,-0.03159 l 0,-21.232457 0,-3.595233 0,-5.1362928 c 0,-0.2458864 -0.105868,-0.4798199 -0.290283,-0.6411828 z M 14.266534,50.029744 c -3.765989,0 -6.8301764,-2.681698 -6.8301764,-5.976404 0,-3.294706 3.0641874,-5.976404 6.8301764,-5.976404 3.765989,0 6.830176,2.681698 6.830176,5.976404 0,3.294706 -3.064187,5.976404 -6.830176,5.976404 z m 26.466933,-8.53772 c -3.765989,0 -6.830176,-2.681698 -6.830176,-5.976404 0,-3.294707 3.064187,-5.976404 6.830176,-5.976404 3.765988,0 6.830176,2.681697 6.830176,5.976404 0,3.294706 -3.064188,5.976404 -6.830176,5.976404 z m -17.929213,-24.673158 0,-2.624495 0,-4.3866809 24.759389,-3.2033522 0,4.1655541 0,2.844768 -24.759389,3.204206 z"
     id="path3"
     style="fill:#f9f9f9"
     inkscape:connector-curvature="0" /><g
     id="g5"
     style="fill:#f9f9f9" /><g
     id="g7"
     style="fill:#f9f9f9" /><g
     id="g9"
     style="fill:#f9f9f9" /><g
     id="g11"
     style="fill:#f9f9f9" /><g
     id="g13"
     style="fill:#f9f9f9" /><g
     id="g15"
     style="fill:#f9f9f9" /><g
     id="g17"
     style="fill:#f9f9f9" /><g
     id="g19"
     style="fill:#f9f9f9" /><g
     id="g21"
     style="fill:#f9f9f9" /><g
     id="g23"
     style="fill:#f9f9f9" /><g
     id="g25"
     style="fill:#f9f9f9" /><g
     id="g27"
     style="fill:#f9f9f9" /><g
     id="g29"
     style="fill:#f9f9f9" /><g
     id="g31"
     style="fill:#f9f9f9" /><g
     id="g33"
     style="fill:#f9f9f9" /></svg>